HIERARCHY
ROOT Hips
{
  OFFSET 0 89.5177 0.535
  CHANNELS 6 Xposition Yposition Zposition Zrotation Xrotation Yrotation
  JOINT Spine
  {
    OFFSET 12.0259 -0.162855 1.69034e-005
    CHANNELS 3 Zrotation Xrotation Yrotation
    JOINT Spine1
    {
      OFFSET 15.3169 -0.0121922 0
      CHANNELS 3 Zrotation Xrotation Yrotation
      JOINT Spine2
      {
        OFFSET 15.3176 -0.0121908 0
        CHANNELS 3 Zrotation Xrotation Yrotation
        JOINT Neck
        {
          OFFSET 19.9142 1.56338 0
          CHANNELS 3 Zrotation Xrotation Yrotation
          JOINT Head
          {
            OFFSET 6.92651 0 0
            CHANNELS 3 Zrotation Xrotation Yrotation
            End Site
            {
              OFFSET 20.7666 0 0
            }
          }
          JOINT LeftShoulder
          {
            OFFSET -6.20654 0.708824 7.28219
            CHANNELS 3 Zrotation Xrotation Yrotation
            JOINT LeftArm
            {
              OFFSET 14.108 0 -1.52588e-005
              CHANNELS 3 Zrotation Xrotation Yrotation
              JOINT LeftForeArm
              {
                OFFSET 28.5802 0 0
                CHANNELS 3 Zrotation Xrotation Yrotation
                JOINT LeftHand
                {
                  OFFSET 27.092 0 0
                  CHANNELS 3 Zrotation Xrotation Yrotation
                  End Site
                  {
                    OFFSET 9.55928 -0.186424 0.145352
                  }
                }
              }
            }
          }
          JOINT RightShoulder
          {
            OFFSET -6.20654 0.708866 -7.28218
            CHANNELS 3 Zrotation Xrotation Yrotation
            JOINT RightArm
            {
              OFFSET 14.108 0 1.52588e-005
              CHANNELS 3 Zrotation Xrotation Yrotation
              JOINT RightForeArm
              {
                OFFSET 28.5802 0 0
                CHANNELS 3 Zrotation Xrotation Yrotation
                JOINT RightHand
                {
                  OFFSET 27.092 0 0
                  CHANNELS 3 Zrotation Xrotation Yrotation
                  End Site
                  {
                    OFFSET 9.55929 -0.186417 -0.145354
                  }
                }
              }
            }
          }
        }
      }
    }
  }
  JOINT LeftUpLeg
  {
    OFFSET 0.005 -0.535 8.837
    CHANNELS 3 Zrotation Xrotation Yrotation
    JOINT LeftLeg
    {
      OFFSET 39.9035 0 0
      CHANNELS 3 Zrotation Xrotation Yrotation
      JOINT LeftFoot
      {
        OFFSET 39.6689 0 0
        CHANNELS 3 Zrotation Xrotation Yrotation
        JOINT LeftToe
        {
          OFFSET 10.1624 13.6296 0
          CHANNELS 3 Zrotation Xrotation Yrotation
          End Site
          {
            OFFSET 8.38147 0 0
          }
        }
      }
    }
  }
  JOINT RightUpLeg
  {
    OFFSET 0.005 -0.535 -8.837
    CHANNELS 3 Zrotation Xrotation Yrotation
    JOINT RightLeg
    {
      OFFSET 39.9035 0 0
      CHANNELS 3 Zrotation Xrotation Yrotation
      JOINT RightFoot
      {
        OFFSET 39.6689 0 0
        CHANNELS 3 Zrotation Xrotation Yrotation
        JOINT RightToe
        {
          OFFSET 10.1624 13.6296 0
          CHANNELS 3 Zrotation Xrotation Yrotation
          End Site
          {
            OFFSET 8.38147 0 0
          }
        }
      }
    }
  }
}
MOTION
Frames:	6
Frame Time:	0.0333333
432.056 89.1086 46.074 -85.2051 -87.7069 -174.755 0.233585 -0.679802 0.266816 0.470386 -1.35803 0.536626 0.470386 -1.35803 0.536617 -8.30758e-012 -9.0191e-006 -5.27751e-005 26.1359 9.91412 -9.21056 -179.465 -6.61354 -85.3604 58.1827 -72.0138 55.3855 -0.221378 4.77083e-015 -3.18055e-015 -59.26 -16.4755 -47.0356 179.99 0.786618 90.7129 45.0593 54.2066 -38.2548 -21.6274 0 -4.77083e-015 -38.0806 31.7658 42.7431 -1.74402 4.88916 178.469 -15.3948 -3.97569e-016 -6.95746e-016 15.8275 8.24377 -3.71084 90 -4.47266e-016 -0 3.30631 -2.73767 177.192 -7.17261 -7.95139e-016 -2.98177e-016 10.2759 -6.65579 4.0847 90 -1.70831e-017 1.98785e-016 
431.895 89.1262 46.0854 -93.688 -87.9151 176.712 0.233468 -0.669928 0.240019 0.469791 -1.3384 0.482983 0.46979 -1.3384 0.482974 -8.30728e-012 -9.0191e-006 -5.27751e-005 25.775 10.1843 -9.48436 -179.461 -6.60542 -85.3199 58.7071 -72.3654 55.7613 -0.351487 -3.18055e-015 1.59028e-015 -59.2365 -16.2302 -46.5407 179.992 0.699758 90.6893 45.1375 54.0448 -38.4578 -22.2156 3.18055e-015 2.38542e-015 -37.6677 31.7522 42.293 -2.13722 4.89105 178.439 -15.4894 -3.97569e-016 1.98785e-016 15.9505 8.40268 -3.7403 90 -7.45443e-016 7.95139e-016 3.23736 -2.9104 177.172 -6.66132 -7.95139e-016 2.98177e-016 9.9409 -6.64296 4.02235 90 -4.16205e-016 7.95139e-016 
431.691 89.1318 46.1158 -105.082 -88.1594 165.337 0.221272 -0.655823 0.202765 0.44491 -1.31038 0.408269 0.44491 -1.31038 0.40826 -8.30748e-012 -9.0191e-006 -5.27751e-005 25.5049 10.377 -9.90715 -179.452 -6.66004 -85.288 58.6428 -72.529 55.9547 -0.489216 0 -1.59028e-015 -59.328 -16.0617 -46.2557 179.992 0.650421 90.7148 45.333 53.8026 -38.7001 -22.6435 0 -0 -37.3441 31.8941 42.1271 -2.60649 4.77493 178.299 -15.6635 -3.97569e-016 8.94531e-016 16.1197 8.58249 -3.74725 90 1.49089e-016 7.95139e-016 2.88822 -3.37631 177.028 -6.62707 0 -9.93923e-016 9.88274 -6.77764 4.14187 90 -5.3734e-016 -0 
431.444 89.1239 46.1313 -116.705 -88.4712 153.782 0.227997 -0.641646 0.158577 0.457815 -1.28218 0.319905 0.457815 -1.28218 0.319895 -8.30748e-012 -9.0191e-006 -5.27751e-005 25.2601 10.4906 -10.2904 -179.451 -6.67451 -85.2833 58.8021 -72.6134 56.5657 -0.658175 1.59028e-015 -7.95139e-016 -59.2786 -15.8562 -45.8848 179.992 0.64478 90.7114 45.4703 53.6115 -38.792 -22.7335 3.18055e-015 7.95139e-016 -37.1595 31.9787 42.076 -2.96372 4.64212 178.087 -15.8988 3.97569e-016 2.98177e-016 16.3155 8.79258 -3.75104 90 -1.49089e-015 7.95139e-016 2.61265 -3.90411 176.807 -6.76036 -7.95139e-016 -0 9.93956 -6.87538 4.20728 90 2.76435e-016 3.97569e-016 
431.162 89.1075 46.1323 -133.275 -88.8384 137.289 0.246386 -0.642618 0.111643 0.494072 -1.28428 0.226237 0.494072 -1.28428 0.226228 -8.30748e-012 -9.0191e-006 -5.27751e-005 24.7484 10.6911 -10.5112 -179.45 -6.65407 -85.2601 58.01 -72.4428 56.2851 -0.830753 0 -0 -59.2763 -15.5734 -45.416 179.993 0.55922 90.7625 45.9566 53.5803 -39.1507 -22.5421 -3.18055e-015 -1.59028e-015 -36.8776 32.1107 41.9291 -3.24776 4.34573 177.82 -16.1919 -3.97569e-016 1.98785e-016 16.5518 9.01096 -3.71663 90 -1.73937e-015 -0 2.34865 -4.2666 176.597 -7.13414 -7.95139e-016 -0 10.0102 -6.73217 3.8643 90 2.17421e-017 -0 
430.834 89.0744 46.1495 -156.928 -89.0116 113.807 0.26445 -0.64679 0.0557409 0.529583 -1.29284 0.114645 0.529582 -1.29284 0.114636 -8.30748e-012 -9.0191e-006 -5.27751e-005 23.725 10.932 -10.5894 -179.432 -6.69007 -85.1393 57.1717 -72.3462 55.9267 -0.973231 -1.59028e-015 -1.59028e-015 -59.0366 -15.3825 -44.7259 179.993 0.43228 90.8666 46.5276 53.5358 -39.6351 -22.3919 3.18055e-015 -3.18055e-015 -36.3724 32.0814 41.4219 -3.49993 4.02575 177.412 -16.4193 -1.19271e-015 -3.97569e-016 16.7581 9.10147 -3.56788 90 -4.96962e-016 -1.59028e-015 1.62191 -4.48167 176.245 -8.36851 0 -5.96354e-016 10.4024 -6.51055 3.34475 90 2.48481e-017 -1.98785e-016 
